<?xml version="1.0" encoding="UTF-8" standalone="no"?>
<svg viewBox="0 0 800 500" xmlns="http://www.w3.org/2000/svg">
  <!-- Background -->
  <rect x="0" y="0" width="800" height="500" fill="#0000" rx="10" ry="10"/>

  <!-- Title -->
  <text x="400" y="40" font-family="Arial, sans-serif" font-size="24" font-weight="bold" text-anchor="middle" fill="#333">WireMock: HTTP Service Stubbing for Testing</text>

  <!-- Left box: Real Environment -->
  <rect x="50" y="100" width="280" height="300" rx="10" ry="10" fill="#e9ecef" stroke="#495057" stroke-width="2"/>
  <text x="190" y="130" font-family="Arial, sans-serif" font-size="18" font-weight="bold" text-anchor="middle" fill="#333">Production Environment</text>

  <!-- Right box: Test Environment -->
  <rect x="470" y="100" width="280" height="300" rx="10" ry="10" fill="#e9f7ef" stroke="#28a745" stroke-width="2"/>
  <text x="610" y="130" font-family="Arial, sans-serif" font-size="18" font-weight="bold" text-anchor="middle" fill="#333">Test Environment</text>

  <!-- Application in left box -->
  <rect x="110" y="160" width="160" height="70" rx="8" ry="8" fill="#ffffff" stroke="#495057" stroke-width="2"/>
  <text x="190" y="202" font-family="Arial, sans-serif" font-size="16" font-weight="bold" text-anchor="middle" fill="#333">Spring Boot App</text>

  <!-- API in left box -->
  <rect x="110" y="300" width="160" height="70" rx="8" ry="8" fill="#ffffff" stroke="#495057" stroke-width="2"/>
  <text x="190" y="342" font-family="Arial, sans-serif" font-size="16" font-weight="bold" text-anchor="middle" fill="#333">External API</text>

  <!-- Application in right box -->
  <rect x="530" y="160" width="160" height="70" rx="8" ry="8" fill="#ffffff" stroke="#28a745" stroke-width="2"/>
  <text x="610" y="202" font-family="Arial, sans-serif" font-size="16" font-weight="bold" text-anchor="middle" fill="#333">Spring Boot App</text>

  <!-- WireMock in right box -->
  <rect x="530" y="300" width="160" height="70" rx="8" ry="8" fill="#ffffff" stroke="#28a745" stroke-width="2"/>
  <text x="610" y="335" font-family="Arial, sans-serif" font-size="16" font-weight="bold" text-anchor="middle" fill="#333">WireMock</text>
  <text x="610" y="355" font-family="Arial, sans-serif" font-size="12" text-anchor="middle" fill="#333">Mock External API</text>

  <!-- Arrows in left box -->
  <path d="M190 230 L190 300" fill="none" stroke="#495057" stroke-width="2"/>
  <polygon points="190,300 185,290 195,290" fill="#495057"/>

  <!-- Arrows in right box -->
  <path d="M610 230 L610 300" fill="none" stroke="#28a745" stroke-width="2"/>
  <polygon points="610,300 605,290 615,290" fill="#28a745"/>

  <!-- Cloud icon for the internet -->

  <!-- Labels for arrows -->

  <!-- Key Features of WireMock -->
  <text x="400" y="420" font-family="Arial, sans-serif" font-size="18" font-weight="bold" text-anchor="middle" fill="#333">Key Benefits of WireMock</text>

  <circle cx="200" cy="450" r="6" fill="#28a745"/>
  <text x="215" y="455" font-family="Arial, sans-serif" font-size="14" text-anchor="start" fill="#333">Controlled test environment</text>

  <circle cx="400" cy="450" r="6" fill="#28a745"/>
  <text x="415" y="455" font-family="Arial, sans-serif" font-size="14" text-anchor="start" fill="#333">No network dependency</text>

  <circle cx="600" cy="450" r="6" fill="#28a745"/>
  <text x="615" y="455" font-family="Arial, sans-serif" font-size="14" text-anchor="start" fill="#333">Predictable responses</text>

  <circle cx="200" cy="480" r="6" fill="#28a745"/>
  <text x="215" y="485" font-family="Arial, sans-serif" font-size="14" text-anchor="start" fill="#333">Simulate error conditions</text>

  <circle cx="400" cy="480" r="6" fill="#28a745"/>
  <text x="415" y="485" font-family="Arial, sans-serif" font-size="14" text-anchor="start" fill="#333">Fast test execution</text>

  <circle cx="600" cy="480" r="6" fill="#28a745"/>
  <text x="615" y="485" font-family="Arial, sans-serif" font-size="14" text-anchor="start" fill="#333">Java integration</text>

</svg>
